# xmcd
# 
# Track frame offsets:
#     150
#     14597
#     32412
#     49560
#     65147
#     79622
#     95185
#     113687
#     130185
#     149572
#     168110
#     185020
#     203007
#     224940
# 
# Disc length: 3213
# 
# Revision: 2
# Processed by: cddbd v1.5.2PL0 Copyright (c) Steve Scherf et al.
# Submitted via: BonkEnc v1.0.8
# 
DISCID=cf0c8b0e
DTITLE=Various Artist - 80’sアニメ de アイドル
DYEAR=1999
DGENRE=Anime
TTITLE0=岩崎良美 - タッチ「タッチ」
TTITLE1=岩崎良美 - 愛がひとりぼっち「タッチ」
TTITLE2=岩崎良美 - 青春「タッチ」
TTITLE3=浅倉亜季 - 南の風・夏少女「タッチ」
TTITLE4=浅倉亜季 - 雨の中のワンボーイ「タッチ」
TTITLE5=岩崎良美 - チェッ!チェッ!チェッ!「タッチ」
TTITLE6=岩崎良美 - 約束「タッチ」
TTITLE7=内海和子 - 蒼いメモリーズ「タッチ」
TTITLE8=内海和子 - 好きで、ごめん。「タッチ」:
TTITLE9=岩崎良美 - 情熱物語「タッチ」
TTITLE10=浅倉亜季 - 陽あたり良好「陽あたり良好」
TTITLE11=浅倉亜季 - 青い雨音「陽あたり良好」
TTITLE12=尾崎亜美 - 悲しみはBEATに変えて ～Rise and Shine～「陽あたり良好」
TTITLE13=尾崎亜美 - 世界中の羊数えさせないで「陽あたり良好」
EXTD=
EXTT0=
EXTT1=
EXTT2=
EXTT3=
EXTT4=
EXTT5=
EXTT6=
EXTT7=
EXTT8=
EXTT9=
EXTT10=
EXTT11=
EXTT12=
EXTT13=
PLAYORDER=
